<?xml version="1.0" encoding="utf-8"?>
<!-- Generator: Adobe Illustrator 19.2.1, SVG Export Plug-In . SVG Version: 6.00 Build 0)  -->
<svg version="1.1" id="Layer_1" xmlns="http://www.w3.org/2000/svg" xmlns:xlink="http://www.w3.org/1999/xlink" x="0px" y="0px"
	 viewBox="0 0 270 108.8" style="enable-background:new 0 0 270 108.8;" xml:space="preserve">
<style type="text/css">
	.st0{fill-rule:evenodd;clip-rule:evenodd;fill:#94CEB9;}
	.st1{fill:#231F20;}
</style>
<path class="st0" d="M66.1,15.6c-9.1,6.9-16.9,17.8-19.3,22.6c47.3-16.4,42.3,56.3-1.7,46.9c-1.3,14.3-3.5,19.5-8.8,29.8
	c1.2-9.9,5.3-19.2-2.2-30.4c-4.3-6.4-20.9-4-26.5-10.5C-8,56.1,8.8,26.9,33,39.9c-2.6-8.5-4.5-26.2,0.5-35.3
	c3.8-0.3,5.1,1.9,7.7,2.8c1.1,1.2-0.9,2.4-0.6,4.4c1.5-2,2.5-4.5,3.9-6.6c3.2,0.9,5.4,2.7,7.2,5c-1.4,3.4-3.2,6.4-4.4,9.9
	c4.2-2.1,8.3-9,14.4-11C64.8,9.6,64.8,13.2,66.1,15.6"/>
<g>
	<path class="st1" d="M113.1,85.2l0.9,4.4c0,0.6,0.3,2,0.8,4.3c0.5,2.3,0.8,3.7,0.8,4.4v0.1c0,1.1-0.5,1.7-1.4,2
		c-1.2,0-2.1-0.2-2.8-0.5c-0.7-0.3-1-1-1-1.9c0-2-0.4-5-1.2-8.9l-8.3-1.1c-0.5,1.6-0.9,3.3-1.2,5.2c-0.3,1.9-0.5,3.3-0.8,4.1
		c-0.5,1.8-1.4,2.7-2.8,2.7c-0.7,0-1.3-0.2-1.8-0.5c-0.6-0.4-0.8-0.8-0.8-1.4l0.2-0.6c3.8-12.4,6.6-24.6,8.4-36.4
		c0.1-0.3,0.1-1.3,0.2-2.9c0.3-3.5,0.8-5.7,1.6-6.7h2.8c0.8,0,1.4,0.2,2,0.5c0.6,0.3,0.9,0.8,0.9,1.4c0,3.6,0.6,9,1.7,16.2
		S113.1,82,113.1,85.2z M108.7,86.6c-0.2-0.7-0.2-1.9-0.2-3.7s-0.1-3.9-0.3-6.5c-0.2-2.6-0.6-5.6-1-9c-0.4-3.4-0.7-5.9-0.9-7.4
		c-2.6,12-4.2,20.5-4.9,25.4C102.2,86,104.7,86.4,108.7,86.6z"/>
	<path class="st1" d="M119.3,82.4l0-4.2v-1.7c0-7.1,0.4-12,1.2-14.7c1-3.4,2.4-5.8,4.1-7.1c2.4-1.8,5.4-2.7,9.1-2.7
		c0.9,0,1.5,0.2,2,0.5c0.4,0.4,0.6,0.8,0.6,1.3c0,0.5-0.2,0.9-0.5,1.3c-0.3,0.4-0.8,0.6-1.3,0.6h-4c-1.2,0-2.2,0.6-3,1.9
		c-0.8,1.3-1.4,2.8-1.8,4.6c-0.7,3.5-1.1,6.3-1,8.6v0.3L124.3,85c0,2.9,0.2,4.9,0.6,6.1c0.4,1.1,0.8,2,1.2,2.7
		c0.4,0.7,0.9,1.3,1.4,1.7c1.3,1,2.9,1.5,4.9,1.5c0.7,0,1.3-0.2,1.8-0.6c0.7,0,1.2,0.1,1.8,0.4c0.5,0.3,0.8,0.7,0.8,1.2
		c0,1.9-1.6,2.8-4.7,2.8c-1.3,0-2.6-0.2-4-0.5c-1.4-0.3-2.4-0.7-3.1-1C121.2,97.2,119.3,91.6,119.3,82.4z"/>
	<path class="st1" d="M159.5,85.2l0.9,4.4c0,0.6,0.3,2,0.8,4.3s0.8,3.7,0.8,4.4v0.1c0,1.1-0.5,1.7-1.4,2c-1.2,0-2.1-0.2-2.8-0.5
		c-0.7-0.3-1-1-1-1.9c0-2-0.4-5-1.2-8.9l-8.3-1.1c-0.5,1.6-0.9,3.3-1.2,5.2c-0.3,1.9-0.5,3.3-0.8,4.1c-0.5,1.8-1.4,2.7-2.8,2.7
		c-0.7,0-1.3-0.2-1.8-0.5c-0.6-0.4-0.8-0.8-0.8-1.4l0.2-0.6c3.8-12.4,6.6-24.6,8.4-36.4c0.1-0.3,0.1-1.3,0.2-2.9
		c0.3-3.5,0.8-5.7,1.6-6.7h2.8c0.8,0,1.4,0.2,2,0.5c0.6,0.3,0.9,0.8,0.9,1.4c0,3.6,0.6,9,1.7,16.2S159.5,82,159.5,85.2z M155.1,86.6
		c-0.2-0.7-0.2-1.9-0.2-3.7s-0.1-3.9-0.4-6.5c-0.2-2.6-0.6-5.6-1-9c-0.4-3.4-0.7-5.9-0.9-7.4c-2.6,12-4.2,20.5-4.9,25.4
		C148.6,86,151.1,86.4,155.1,86.6z"/>
	<path class="st1" d="M166.8,90.8l0.2-22.6c0-1.5-0.2-3.9-0.5-7.1c-0.3-3.2-0.5-5.2-0.5-6c0-0.9,0.3-1.5,0.9-2
		c0.6-0.5,1.3-0.7,2-0.7c5.8,0,10.5,2.9,14.1,8.7c2.1,3.3,3.1,6.8,3.1,10.4l-0.2,3.6v4c0,4.8-0.3,8-0.8,9.6c-0.5,1.6-1,3-1.6,4
		c-0.5,1.1-1.2,2-2,2.9c-1.8,1.9-4,3.5-6.8,4.6h-6.1C167.5,100.2,166.8,97.1,166.8,90.8z M172.7,94.8v1.7c4.9,0,7.8-4.2,8.8-12.6
		c0.2-1.9,0.3-3.8,0.3-5.6c0-14.4-3.3-22-9.8-22.6c-0.4,1.9-0.6,4.5-0.6,7.8c0,3.3,0.2,8.5,0.6,15.5C172.4,86,172.7,91.3,172.7,94.8
		z"/>
	<path class="st1" d="M192.4,63.5l-0.5-6.1c0-3.4,1.2-5.1,3.5-5.1c1.5,0,3.6,0.3,6.2,0.9c2.6,0.6,3.9,1.4,3.9,2.3
		c0,1-0.8,1.7-2.5,2.2c-2.6-0.7-4.7-1.2-6.4-1.4c0.1,1,0.1,2.1,0.1,3.1l-0.4,10.3c0,0,0.1,0.4,0.2,1.1l3-0.1c2.7,0,4.1,0.7,4.1,2
		c0,0.5-0.2,1-0.7,1.3s-1.1,0.6-1.9,0.6c-0.8,0-1.6,0-2.5-0.1h-2.1c0.2,1.8,0.2,3.6,0.2,5.4l-0.4,13c0,2.7,0.1,4,0.2,4l6.2-0.2
		c2.1,0,3.2,0.6,3.2,1.8c0,0.7-0.4,1.2-1.1,1.6c-0.7,0.3-1.6,0.5-2.5,0.5h-7.1c-0.7,0-1.4-0.2-2-0.6c-0.6-0.4-0.9-1-0.9-1.6v-1.9
		l-0.5-12.1L192.4,63.5z"/>
	<path class="st1" d="M241.6,99l0-9.2c0-2.1-0.2-5.2-0.6-9.4c-0.4-4.1-0.6-6.9-0.6-8.3c0-1.4,0.1-3.1,0.2-5.1c0.1-2,0.2-3.5,0.2-4.4
		c-0.2,0.6-1.2,3.9-2.8,9.9c-4.3,15.5-7.3,23.2-9.2,23.2c-1.1,0-2-0.3-2.6-0.8c-0.6-0.6-0.9-1.3-0.9-2.2c0-2.3-1.1-6.9-3.2-14
		c-2.1-7.1-3.9-12.5-5.3-16.2c-1.1,16.9-1.6,28.3-1.6,34.2l0.1,2.1c0,0.8-0.2,1.4-0.6,1.8c-0.4,0.4-1,0.6-1.8,0.6
		c-0.8,0-1.5-0.2-2-0.5c-0.5-0.3-0.8-0.7-0.8-1.2c0-4.9,0.4-12.2,1.3-21.9c0.9-9.7,1.3-17,1.3-21.9c-0.3-0.4-0.5-0.9-0.5-1.5
		s0.3-1,1-1.2c0.7-0.3,1.4-0.4,2.2-0.4c1.2,0,3.6,4.8,7.2,14.4c3.6,9.6,5.8,16.3,6.6,19.9c0.2-0.7,0.8-2.5,1.5-5.3
		c0.8-2.8,1.6-5.8,2.5-8.8c0.9-3.1,1.8-6.2,2.9-9.3c2.4-7.2,4.4-10.8,6-10.8c0.7,0,1.4,0.2,2.1,0.5c0.7,0.3,1,0.8,1,1.4
		c0,3.5,0.2,8.6,0.5,15.5c0.4,6.9,0.5,11.9,0.5,15l-0.2,7.6v0c0,0.5,0.2,2.2,0.5,5.1l0.2,1.4c0.2,0.5,0.4,1.1,0.4,1.6
		c0,0.6-0.3,1.2-0.8,1.8c-0.5,0.7-1.2,1-2.1,1C242.5,103.5,241.6,102,241.6,99z"/>
	<path class="st1" d="M263.9,96c0,3.2-0.9,4.8-2.8,4.8c-1,0-1.8-0.5-2.3-1.6c0.6-1.1,0.9-5.1,0.9-12.2c0-1.3-0.2-3.1-0.5-5.5
		c-0.3-2.4-0.5-4-0.5-5v-1.9c-0.1-0.2-1-2.1-2.6-5.7c-3.7-8-5.6-12.8-5.6-14.3v-0.4l1.9-1.2c1.7,0,3.8,3.7,6.2,11.1
		c1,3.2,1.6,4.8,1.6,4.9c0.2-0.5,0.7-2.3,1.3-5.4c1.7-7.8,3.4-11.6,5.3-11.6c0.5,0,1,0.1,1.4,0.4c0.4,0.3,0.6,0.6,0.6,1.1
		c0,2.4-0.8,5.8-2.4,10.4c-1.6,4.5-2.4,8-2.5,10.4V96z"/>
</g>
<g>
	<path class="st1" d="M94.4,24.2l-0.2-1.8v-0.2c0-0.5,0.1-0.9,0.3-1.2c0.2-0.3,0.6-0.4,1.4-0.4c0.8,0,1.5,0.2,2.2,0.5
		c0.7,0.3,1.3,0.8,1.7,1.4c0.8,1.1,1.2,2.5,1.2,3.9c0,1.5-0.1,2.6-0.4,3.5c-0.3,0.9-0.7,1.7-1.3,2.4c1.1,0.9,1.7,2.3,1.9,4.4
		c0,0.5,0,1,0.1,1.7c0,0.6-0.1,1.3-0.2,1.9c-0.1,0.6-0.4,1.2-0.7,1.8c-0.3,0.6-0.7,1.1-1.2,1.5c-1,0.9-2.4,1.3-4.1,1.3
		c-0.6,0-1-0.2-1.1-0.7c-0.1-0.3-0.2-0.7-0.2-1.2l0.4-7.5L94.4,24.2z M96.1,41.2l0,0.2V43c0.9-0.2,1.6-0.7,2.1-1.4
		c0.5-0.8,0.7-1.5,0.7-2.1s0-1.2,0-1.5c0-0.4-0.1-0.8-0.2-1.4c-0.1-0.6-0.2-1-0.4-1.4c-0.4-1-1-1.6-1.9-1.7
		c-0.1,1.5-0.2,3.3-0.2,5.3L96.1,41.2z M96.4,26v5.3c1.5,0,2.2-1.5,2.2-4.5s-0.6-4.5-1.7-4.6C96.5,22.8,96.4,24.1,96.4,26z"/>
	<path class="st1" d="M104.1,26.6l-0.2-3c0-1.7,0.6-2.5,1.7-2.5c0.7,0,1.8,0.1,3,0.4c1.3,0.3,1.9,0.7,1.9,1.1c0,0.5-0.4,0.9-1.2,1.1
		c-1.3-0.4-2.3-0.6-3.1-0.7c0,0.5,0.1,1,0.1,1.5l-0.2,5.1c0,0,0,0.2,0.1,0.6l1.5-0.1c1.3,0,2,0.3,2,1c0,0.3-0.1,0.5-0.4,0.7
		c-0.2,0.2-0.6,0.3-0.9,0.3c-0.4,0-0.8,0-1.2-0.1h-1.1c0.1,0.9,0.1,1.8,0.1,2.7l-0.2,6.4c0,1.3,0,2,0.1,2l3.1-0.1
		c1.1,0,1.6,0.3,1.6,0.9c0,0.4-0.2,0.6-0.5,0.8c-0.4,0.2-0.8,0.2-1.2,0.2h-3.5c-0.4,0-0.7-0.1-1-0.3c-0.3-0.2-0.5-0.5-0.5-0.8v-0.9
		l-0.3-6L104.1,26.6z"/>
	<path class="st1" d="M113.4,26.6l-0.2-3c0-1.7,0.6-2.5,1.7-2.5c0.7,0,1.8,0.1,3,0.4c1.3,0.3,1.9,0.7,1.9,1.1c0,0.5-0.4,0.9-1.2,1.1
		c-1.3-0.4-2.3-0.6-3.1-0.7c0,0.5,0.1,1,0.1,1.5l-0.2,5.1c0,0,0,0.2,0.1,0.6l1.5-0.1c1.3,0,2,0.3,2,1c0,0.3-0.1,0.5-0.4,0.7
		c-0.2,0.2-0.6,0.3-0.9,0.3c-0.4,0-0.8,0-1.2-0.1h-1.1c0.1,0.9,0.1,1.8,0.1,2.7l-0.2,6.4c0,1.3,0,2,0.1,2l3.1-0.1
		c1.1,0,1.6,0.3,1.6,0.9c0,0.4-0.2,0.6-0.5,0.8c-0.4,0.2-0.8,0.2-1.2,0.2h-3.5c-0.4,0-0.7-0.1-1-0.3c-0.3-0.2-0.5-0.5-0.5-0.8v-0.9
		l-0.3-6L113.4,26.6z"/>
	<path class="st1" d="M126.1,43.8l-0.1-2.7c0,0,0-0.4,0.1-1.2c-0.1-0.3-0.3-3-0.7-8s-0.5-8.1-0.5-9.2c-0.1,0-0.1,0-0.2,0
		c-2.2,0-3.4-0.4-3.4-1.1c0-0.2,0.1-0.4,0.4-0.5c0.3-0.1,0.6-0.2,0.9-0.2l5.6,0.3l0.7,0c0.9,0,1.3,0.3,1.3,0.8
		c0,0.3-0.1,0.5-0.4,0.7c-0.3,0.2-0.6,0.3-1,0.3l-1.9-0.2l-0.1,0.4c0,2.2,0.2,5.6,0.7,10c0.5,4.4,0.7,7.8,0.7,10
		c0,0.3-0.1,0.5-0.4,0.7c-0.3,0.2-0.6,0.3-1,0.3L126.1,43.8z"/>
	<path class="st1" d="M134.2,32.6l0,3.8c0,3.1,0.3,5.6,0.8,7.4l-0.5,0.9h-1.2l-0.5-0.5c0-1.1,0-2.2,0-3.6c0-1.3-0.1-4.1-0.4-8.4
		c-0.2-4.3-0.4-7.5-0.4-9.6c0-1.1,0.5-1.7,1.4-1.7c1.4,0,2.7,0.3,3.6,1c1,0.6,1.5,1.6,1.5,2.8v2.5c0,0.7-0.1,1.3-0.4,1.9
		c-0.3,0.6-0.6,1.1-1,1.8c-0.4,0.6-0.6,1-0.6,1c0.1,0.6,0.4,1.7,0.8,3.4c0.8,3.7,1.7,6.3,2.7,7.9c0.3,0.5,0.4,0.8,0.4,1.1
		c0,0.3-0.1,0.5-0.3,0.7c-0.2,0.2-0.4,0.3-0.7,0.3c-0.6,0-1.1-0.6-1.7-1.7s-1-2.4-1.3-3.8c-1-4.2-1.6-6.5-1.8-7H134.2z M134.4,22.2
		l-0.1,0.5c0,1,0,2.4,0.1,4.2c0.1,1.8,0.1,3.1,0.1,4c0.6-0.3,1.2-1,1.6-2.2c0.4-1.2,0.6-2.1,0.6-2.8s0-1.1-0.1-1.4
		c0-0.3-0.1-0.6-0.3-1C136,22.6,135.3,22.2,134.4,22.2z"/>
	<path class="st1" d="M141.9,33.6l0-1.3c0-0.1,0-0.2-0.1-0.2v-0.6c0-3.7,0.2-6.3,0.7-7.9c0.4-1.3,0.8-2.1,1.2-2.4
		c0.4-0.3,0.8-0.5,1.2-0.5c3.2,0,5.4,1.4,6.6,4.1c0.7,1.6,1.1,3.5,1.1,5.9v0.3l0.1,4c0,6.8-1.8,10.1-5.5,10.1
		c-1.5,0-2.7-0.7-3.5-2.2c-0.8-1.4-1.2-2.7-1.4-4.1C142,36.8,141.9,35.1,141.9,33.6z M144.3,28.8l-0.2,3.3c0,3.4,0.3,6.4,1,8.9
		c0.7,1.5,1.3,2.4,2,2.6c0.5,0,1-0.2,1.4-0.5c0.4-0.3,0.7-0.8,1-1.4c0.2-0.6,0.4-1.2,0.6-1.8c0.1-0.6,0.3-1.3,0.3-2
		c0.1-1.3,0.2-2.3,0.2-3.2s-0.1-2.2-0.3-4.1c-0.2-1.8-0.3-3.2-0.3-4.1v-0.6c0-0.9-0.4-1.6-1-2.3c-0.6-0.7-1.4-1-2.4-1
		c-0.9,0-1.6,0.5-1.9,1.4c-0.3,0.8-0.4,1.7-0.4,2.8L144.3,28.8z"/>
	<path class="st1" d="M155.1,33.6l0-1.3c0-0.1,0-0.2-0.1-0.2v-0.6c0-3.7,0.3-6.3,0.8-7.9c0.4-1.3,0.8-2.1,1.2-2.4
		c0.4-0.3,0.8-0.5,1.2-0.5c3.2,0,5.4,1.4,6.6,4.1c0.7,1.6,1.1,3.5,1.1,5.9v0.3l0.1,4c0,6.8-1.8,10.1-5.5,10.1
		c-1.5,0-2.7-0.7-3.5-2.2c-0.8-1.4-1.2-2.7-1.4-4.1C155.2,36.8,155.1,35.1,155.1,33.6z M157.5,28.8l-0.2,3.3c0,3.4,0.3,6.4,1,8.9
		c0.7,1.5,1.3,2.4,2,2.6c0.5,0,1-0.2,1.4-0.5c0.4-0.3,0.7-0.8,1-1.4c0.2-0.6,0.4-1.2,0.6-1.8c0.1-0.6,0.3-1.3,0.3-2
		c0.1-1.3,0.2-2.3,0.2-3.2s-0.1-2.2-0.3-4.1c-0.2-1.8-0.3-3.2-0.3-4.1v-0.6c0-0.9-0.4-1.6-1-2.3c-0.6-0.7-1.4-1-2.4-1
		c-0.9,0-1.6,0.5-1.9,1.4c-0.3,0.8-0.4,1.7-0.4,2.8L157.5,28.8z"/>
	<path class="st1" d="M172.4,43.8l-0.1-2.7c0,0,0-0.4,0.1-1.2c-0.1-0.3-0.3-3-0.7-8c-0.3-5-0.5-8.1-0.5-9.2c-0.1,0-0.1,0-0.2,0
		c-2.2,0-3.4-0.4-3.4-1.1c0-0.2,0.1-0.4,0.4-0.5c0.3-0.1,0.6-0.2,0.9-0.2l5.6,0.3l0.7,0c0.9,0,1.3,0.3,1.3,0.8
		c0,0.3-0.1,0.5-0.4,0.7c-0.3,0.2-0.6,0.3-1,0.3l-1.9-0.2l-0.1,0.4c0,2.2,0.2,5.6,0.7,10c0.5,4.4,0.7,7.8,0.7,10
		c0,0.3-0.1,0.5-0.4,0.7c-0.3,0.2-0.6,0.3-1,0.3L172.4,43.8z"/>
</g>
</svg>
